<?xml version="1.0" encoding="UTF-8" standalone="no"?>
<!-- Generator: Adobe Illustrator 18.0.0, SVG Export Plug-In . SVG Version: 6.00 Build 0)  -->

<svg
   xmlns:dc="http://purl.org/dc/elements/1.1/"
   xmlns:cc="http://creativecommons.org/ns#"
   xmlns:rdf="http://www.w3.org/1999/02/22-rdf-syntax-ns#"
   xmlns:svg="http://www.w3.org/2000/svg"
   xmlns="http://www.w3.org/2000/svg"
   xmlns:sodipodi="http://sodipodi.sourceforge.net/DTD/sodipodi-0.dtd"
   xmlns:inkscape="http://www.inkscape.org/namespaces/inkscape"
   version="1.1"
   id="Capa_1"
   x="0px"
   y="0px"
   viewBox="0 0 309.639 309.639"
   style="enable-background:new 0 0 309.639 309.639;"
   xml:space="preserve"
   sodipodi:docname="hat-outlined.svg"
   inkscape:version="0.92.5 (2060ec1f9f, 2020-04-08)"><title
   id="title1345">Santa Hat</title><metadata
   id="metadata1276"><rdf:RDF><cc:Work
       rdf:about=""><dc:format>image/svg+xml</dc:format><dc:type
         rdf:resource="http://purl.org/dc/dcmitype/StillImage" /><dc:title>Santa Hat</dc:title><cc:license
         rdf:resource="http://creativecommons.org/publicdomain/zero/1.0/" /><dc:source>https://www.svgrepo.com/svg/57355/santa-hat</dc:source><dc:rights><cc:Agent><dc:title>Modified from CC0-licensed SVG</dc:title></cc:Agent></dc:rights><dc:creator><cc:Agent><dc:title>Chris Markiewicz</dc:title></cc:Agent></dc:creator><dc:date>2021-12-14</dc:date><dc:description>Black santa hat with white outline and fluff</dc:description></cc:Work><cc:License
       rdf:about="http://creativecommons.org/publicdomain/zero/1.0/"><cc:permits
         rdf:resource="http://creativecommons.org/ns#Reproduction" /><cc:permits
         rdf:resource="http://creativecommons.org/ns#Distribution" /><cc:permits
         rdf:resource="http://creativecommons.org/ns#DerivativeWorks" /></cc:License></rdf:RDF></metadata><defs
   id="defs1274" /><sodipodi:namedview
   pagecolor="#ffffff"
   bordercolor="#666666"
   borderopacity="1"
   objecttolerance="10"
   gridtolerance="10"
   guidetolerance="10"
   inkscape:pageopacity="0"
   inkscape:pageshadow="2"
   inkscape:window-width="1920"
   inkscape:window-height="1053"
   id="namedview1272"
   showgrid="false"
   inkscape:zoom="0.9990964"
   inkscape:cx="-149.38087"
   inkscape:cy="398.07207"
   inkscape:window-x="0"
   inkscape:window-y="-10"
   inkscape:window-maximized="1"
   inkscape:current-layer="Capa_1" />

<g
   id="g1241">
</g>
<g
   id="g1243">
</g>
<g
   id="g1245">
</g>
<g
   id="g1247">
</g>
<g
   id="g1249">
</g>
<g
   id="g1251">
</g>
<g
   id="g1253">
</g>
<g
   id="g1255">
</g>
<g
   id="g1257">
</g>
<g
   id="g1259">
</g>
<g
   id="g1261">
</g>
<g
   id="g1263">
</g>
<g
   id="g1265">
</g>
<g
   id="g1267">
</g>
<g
   id="g1269">
</g>
<ellipse
   style="opacity:1;vector-effect:none;fill:#ffffff;fill-opacity:1;stroke:#ffffff;stroke-width:1.66332674;stroke-linecap:butt;stroke-linejoin:miter;stroke-miterlimit:4;stroke-dasharray:none;stroke-dashoffset:0;stroke-opacity:1"
   id="path1300"
   cx="250.01137"
   cy="41.757034"
   rx="36.294209"
   ry="35.763397" /><rect
   style="opacity:1;vector-effect:none;fill:#ffffff;fill-opacity:1;stroke:#ffffff;stroke-width:1.25864911;stroke-linecap:butt;stroke-linejoin:miter;stroke-miterlimit:4;stroke-dasharray:none;stroke-dashoffset:0;stroke-opacity:1"
   id="rect1302"
   width="225.86627"
   height="81.837967"
   x="23.130114"
   y="222.00876"
   ry="40.918983" /><path
   inkscape:connector-curvature="0"
   d="m 249.74321,7.3729823 c -18.90569,0 -34.28568,15.3799847 -34.28568,34.2856797 0,1.692379 -2.70241,2.116678 -2.46432,3.745248 L 141.99709,74.108025 C 81.288591,98.19943 45.002088,158.85237 51.723986,223.70469 c -16.328555,4.95047 -26.114828,21.25949 -26.114828,39.03757 0,21.79331 17.894268,39.52377 39.890436,39.52377 H 207.11088 c 21.99616,0 39.89139,-17.73046 39.89139,-39.52377 0,-19.8476 -13.58378,-37.96326 -32.84852,-40.74802 -12.61332,-24.60379 -11.69721,-52.84961 -1.06981,-78.54101 l 29.40641,-66.098442 c 2.7181,0.694285 4.3243,-1.411399 7.25477,-1.411399 18.90474,0 34.28473,-15.379984 34.28473,-34.28568 0,-18.905694 -15.38284,-34.2847267 -34.28664,-34.2847267 z M 232.71561,262.74321 c 0,14.15141 -11.24761,25.23807 -25.60569,25.23807 H 65.498642 c -14.357129,0 -25.604736,-11.08666 -25.604736,-25.23807 0,-14.15141 11.247607,-25.23807 25.604736,-25.23807 H 207.10992 c 14.35808,0 25.60569,11.0857 25.60569,25.23807 z m 17.0276,-201.084568 c -11.0276,0 -19.99998,-8.972372 -19.99998,-19.99998 0,-11.027607 8.97238,-19.999979 19.99998,-19.999979 11.02761,0 19.99903,8.972372 19.99903,19.999979 0,11.027608 -8.97142,19.99998 -19.99903,19.99998 z"
   id="path1239-9-6"
   style="fill:#ffffff;stroke-width:0.95238"
   sodipodi:nodetypes="sscccsssscccsssssssssssssss" /><path
   inkscape:connector-curvature="0"
   d="m 249.74321,7.3729863 c -18.90569,0 -34.28568,15.3799847 -34.28568,34.2856797 0,1.692379 0.12858,3.355234 0.36667,4.983804 L 144.82808,74.815775 C 84.119575,98.90718 47.125326,160.09092 53.847224,224.94324 c -16.328555,4.95047 -28.238067,20.02093 -28.238067,37.79901 0,21.79331 17.894268,39.52377 39.890436,39.52377 H 207.11088 c 21.99616,0 39.89139,-17.73046 39.89139,-39.52377 0,-19.8476 -14.8438,-36.31901 -34.10854,-39.10377 -12.61332,-24.60379 -13.50951,-54.21328 -2.13143,-79.90468 l 30.48949,-68.85612 c 2.7181,0.694285 5.56286,1.065713 8.49333,1.065713 18.90474,0 34.28473,-15.379984 34.28473,-34.28568 0,-18.905694 -15.38284,-34.2847267 -34.28664,-34.2847267 z M 232.71561,262.7432 c 0,14.15142 -11.24761,25.23807 -25.60569,25.23807 H 65.498641 c -14.357129,0 -25.604736,-11.08665 -25.604736,-25.23807 0,-14.15141 11.247607,-25.23807 25.604736,-25.23807 H 207.10992 c 14.35808,0 25.60569,11.0857 25.60569,25.23807 z m 17.0276,-201.084554 c -11.0276,0 -19.99998,-8.972372 -19.99998,-19.99998 0,-11.027607 8.97238,-19.999979 19.99998,-19.999979 11.02761,0 19.99903,8.972372 19.99903,19.999979 0,11.027608 -8.97142,19.99998 -19.99903,19.99998 z"
   id="path1239-9"
   style="stroke-width:0.95238" /></svg>